<svg xmlns="http://www.w3.org/2000/svg" version="1.1" xmlns:xlink="http://www.w3.org/1999/xlink" xmlns:svgjs="http://svgjs.com/svgjs" height="281.57998809814455" width="282.99553527832035"><defs id="SvgjsDefs3051"></defs><g id="SvgjsG3052" rel="mainfill" name="main_text" xmlns:name="main_text" transform="translate(51.23776645660402,-81.05500717163085)" fill="#000000"><path d="M16.86 240C22.82 240 27.49 235.33 27.49 229.37C27.49 223.40 22.31 220.81 22.31 220.81C22.31 220.81 26.46 218.73 26.46 213.80C26.46 208.10 22.05 203.69 16.34 203.69L1.04 203.69L1.04 208.62L5.19 208.62L5.19 235.07L1.04 235.07L1.04 240L7.68 240ZM10.12 208.62L16.34 208.62C19.45 208.62 21.53 210.69 21.53 213.80C21.53 216.92 19.45 218.99 16.34 218.99L10.12 218.99ZM10.12 223.66L16.86 223.66C20.23 223.66 22.56 225.99 22.56 229.37C22.56 232.74 20.23 235.07 16.86 235.07L10.12 235.07ZM45.65 223.66L54.73 223.66L54.73 218.73L31.64 218.73L31.64 223.66L40.72 223.66L40.72 240L45.65 240ZM31.64 208.62L54.73 208.62L54.73 203.69L31.64 203.69ZM59.91 228.59C59.91 235.33 65.10 240.52 71.84 240.52C78.59 240.52 83.78 235.33 83.78 228.59L83.78 215.10C83.78 208.36 78.59 203.17 71.84 203.17C65.10 203.17 59.91 208.36 59.91 215.10ZM78.85 228.59C78.85 232.48 75.73 235.59 71.84 235.59C67.95 235.59 64.84 232.48 64.84 228.59L64.84 215.10C64.84 211.21 67.95 208.10 71.84 208.10C75.73 208.10 78.85 211.21 78.85 215.10ZM89.48 213.80C89.48 224.96 106.86 222.36 106.86 229.37C106.86 232.74 104.52 235.07 101.15 235.07L90.00 235.07L90.00 240L101.15 240C107.12 240 111.79 235.33 111.79 229.37C111.79 218.21 94.41 220.81 94.41 213.80C94.41 210.69 96.48 208.62 99.60 208.62L109.71 208.62L109.71 203.69L99.60 203.69C93.89 203.69 89.48 208.10 89.48 213.80ZM118.53 240L123.46 240L123.46 224.18L128.39 224.18L136.17 240L141.61 240L132.54 221.84L141.61 203.69L136.17 203.69L128.39 219.25L123.46 219.25L123.46 203.69L114.38 203.69L114.38 208.62L118.53 208.62ZM142.65 235.07L142.65 240L160.55 240L160.55 235.07L154.06 235.07L154.06 208.62L160.55 208.62L160.55 203.69L142.65 203.69L142.65 208.62L149.14 208.62L149.14 235.07L142.65 235.07ZM161.59 235.07L161.59 240L179.48 240L179.48 235.07L173.00 235.07L173.00 208.62L179.48 208.62L179.48 203.69L161.59 203.69L161.59 208.62L168.07 208.62L168.07 235.07L161.59 235.07Z" fill="#000000" style="fill: rgb(0, 0, 0);"></path></g><g id="SvgjsG3053" transform="translate(0.044444598257541656,0) scale(2.6)" rel="mainfill" name="outline_container" xmlns:name="outlineContainer_mainfill" fill="#333333"><g fill="#333333"><path d="M103.2 75.8l-.7 1.4-.4.7-.4.7c-.5.9-1 1.8-1.6 2.7l-.5.7-.2.4-.2.3-1 1.4-1 1.3-.5.7-.6.6-1.3 1.5-.7.7-.7.7-1 1-.5.5-.5.5-1 .9-1.1.9-.7.6-.8.6-.8.6-.4.3-.4.3-1.4 1-1.5.9-.8.4-.8.4-.8.4-.4.2-.4.2-1.5.6-.7.2-.5.2 1.5-.9 3-2.1.7-.5h.3l.3-.3 1.2-1 1.5-1.5.7-.7.7-.8.4-.4.4-.5.8-.9a40 40 0 0 0 6.1-8.2V82l.3-.5.5-.9a34 34 0 0 0 3.3-6.6l.2-.4.4-.8.4-.8.2-.4.2-.4.8-1.8.2-.4v-.4l.3-.9.2-.6.2-.6.4-1.3.3-1.3.3-1.3a37.3 37.3 0 0 0 1.1-8.6v-.6-1.7-2.6c0-.3 0-.5-.1-.8l-.2-1.6v-1.2l-.2-1.1c-.1-.5-.2-1-.3-1.4l-.3-1.4-.4-1.4-.2-.7-.2-.7a28.5 28.5 0 0 0-1.3-3.9l-.8-1.9-.9-2c-.1.1.1.6.6 1.7l.6 1.4.3.7.3.7c.3 1 .7 2 1 3l.2.8v.7l.4 1.6.3 1.7V45c.1.6.2 1.3.2 2v1c0 .3.1.7.1 1V53.2c0 .5 0 .9-.1 1.4v3.8l-.2 1.7-.3 1.7-.2.9-.2.8-.2.8v.8l-.5 1.5-.3.7-.3.7-.4.9-.4.9-.4.9h-.1l.2-1.7c0-.1 0-.1-.1 0v.4l-.4 1-.2.6v.7l-.6 1.5v.4l-.2.4-.3.9-.9 2c-.7 1.3-1.5 2.5-2.4 3.7l-.6.8-.6.8-.9 1.4 1-1.1.5-.6.3-.3.3-.3.3-.4-1 1.7-.7 1.1-.7 1.1-1.5 2.1-2.8 3.6-.6.6-.5.4-.6.6-.5.4-.5.3-1 .7-.3.2-.3.2-.7.6-.8.6-.9.6-.7.5-.3.2-.4.2-1.4.9-.4.2-.4.2-.7.4-.7.4-.8.4-.8.4-.4.2-.4.2-1.7.7-1.7.6-.4.2h-.4l-.8.3-1.1.3-1 .3-1 .3-.8.2-1.4.2h-2l-1.6.2h1.8l-.8.2h-.8l-1.5.3-1.9.2h-6.8A51.5 51.5 0 0 1 40 103l-4.2-1.3-.9-.3-.9-.3-1.7-.7-1.7-.8-1.6-.8-.4-.2-.4-.2-.7-.4a20.2 20.2 0 0 1-3-1.8L23 95l-.8-.7-.8-.7-.5-.4-.5-.5-.9-.9-.2-.2-.2-.2-.4-.5-.9-1-.8-1-.8-1-.7-1-.4-.5-.2-.2-.2-.2-1-1.6-.7-1.2.3.4.6.6.6.6 1.3 1.2 1.3 1.2.3.3.3.3.6.5.7.6h.3l.3.3 1.4 1.1 1.4 1 1.1.8 1.1.8 1.2.7 1.3.7 1.3.7.3.2.3.2.7.3.7.3.7.3 1.4.6.7.3.7.3 1.5.5 1.5.4.8.2h.5a66.4 66.4 0 0 0 6.6 2.8l1.6.5 1.7.5 2.9.6 3.9.4h-.5l-1.4-.2h-1.2l-1.4-.3-1.4-.3-1.4-.3-1.4-.4-1.4-.5-1.3-.5-.6-.2-2.6-1.1 1.6.3h1.6l1.6.2h14.2l1.6-.2h1.6l1-.2a72.1 72.1 0 0 0 8.1-2.2l1.2-.4a65.8 65.8 0 0 0 8.2-3.9l1.5-.9 1.4-.9a20.3 20.3 0 0 0 2.4-1.8c1-.8 2-1.8 2.9-2.7a2.2 2.2 0 0 0 .5-.7l-.4.2-.4.3-.4.3-1.1.9-.5.5-.6.4-1.1.9-1.2.9-1.2.9-1.2.8-1.3.7-1.3.7-.5.3a48.2 48.2 0 0 1-9.4 3.7l-2.4.6h-1l-1.2.2h-2.2l-1.8.2h-3.7l1.5-.3.9-.2.9-.2 1.7-.4.9-.2.8-.3.8-.3.8-.3a49.5 49.5 0 0 0 6.7-2.9l.8-.4.4-.2.4-.2 1.6.2 3-2 .7-.5h.3l.3-.3 1.2-1 1.5-1.4.7-.7.7-.7.4-.4.4-.5.8-.9a43.6 43.6 0 0 0 6-7.8v-.5l.3-.5.7-.8a42.2 42.2 0 0 0 3.4-7.7c.4-1.3.7-2.7.9-3.9s0-.1 0 0v.4l-.4 1-.2.6v.7l-.5 1.5v.4l-.2.4-.3.9a49.3 49.3 0 0 1-4 7.8l-.7 1.1-.8 1.1-1.5 2.1-2.9 3.5-.6.6-.5.4-.6.6-.4.4-.5.4-1 .7-.3.2-.3.3-.7.6-.8.6-.9.6-.7.5-.4.2-.4.2-1.4.9-.4.2-.4.2-.7.4-.7.4-.8.4-.8.4-.4.2-.4.2-1.7.8-1.7.7-.4.2h-.4l-.8.3-1.1.3-1.1.3-1 .3-1 .3-1.5.4-1.5.3h-2.1l-1.5.2-1.9.2h-3.5l-1.5.3-2-.4-1.2-.3-1.2-.3H43l-.6-.2-1.2-.4-.6-.2-.6-.2-1.1-.4-.6-.2-.5-.2-1.1-.5-1.4-.8-.7-.4-.7-.4-1.4-.8-1.4-.8-.7-.4-.6-.4-1.3-.8-2.4-1.6-1-.7-.4-.4a50.1 50.1 0 0 1-4.8-5.9l-1.1-1.7h-.1v.2l1 1.2 1 1.2a26.9 26.9 0 0 0 2.3 2l.3.3.3.2.5.4.7.5.5.2-1.5-1.6-.2-.2-.2-.2-.4-.4-.8-.9-.2-.2-.2-.2-.4-.5-.8-.9-.8-1-.8-1-.5-.6-1.3-1.9-1.2-1.9v-.2l-.2-.6-.2-.6-.2-.6-.4-1.1-.2-.6-.2-.6-.6-1-.5-1.6-.2-.8-.2-.8-.4-1.6-.3-1.6-.2-.8v-.8l-.2-1.4-.4-2.8c-.3-3.1-.4-2.9-.5-.8v2.8c0 .3 0 .5.1.8v.8l.2 1.4c.4 2.1.9 4.3 1.5 6.4l-1-2.7c-.3-.9-.6-1.8-.8-2.7v-.7l-.2-.7-.2-.7-.2-.7c-.2-1-.4-1.9-.5-2.9l-.2-1.5-.2-1.5v-2.6-1.4-.7-.8a46.8 46.8 0 0 1 .6-6.3l.4-1.2.2-.7.3-.7.5-1.4.5-1.1.5-1.1.5-1.1.2-.5V35l.7-1.3.2-.4.2-.4.4-.7c.8-1.4 2-3 2.8-4l.4-.6.4-.6.9-1.1 1-1.1.5-.5.5-.5.9-.9 1-.9.5-.4.5-.4 1-.8.5-.4.5-.4 1.1-.8.6-.4.6-.4 1.2-.7a51.8 51.8 0 0 1 5.3-2.6l-4 2.7-1.3 1-.3.3-.3.3-.6.5-.6.5-.6.6-1.2 1.1a47.3 47.3 0 0 0-6 7.4L19 30.9l-1 1.9-.4.8-.6 1v.5l-.2.5-.8 1.2-.2.5-.2.5-.4 1.2-.3 1.1-.6 2.1-.3 1v1.1l-.2 1.1v1.2l-.3 1.5c-.1.5-.1 1-.2 1.5a26.8 26.8 0 0 0-.2 3V54a5.2 5.2 0 0 0 .1.9l.2.5c.1-.7.2-1.4.2-2.2v-4.6l.2-1.3.2-1.3v-.7c.2-.7.3-1.5.5-2.2s.4-1.5.7-2.2a46.9 46.9 0 0 1 4-8.7l1.8-2.4.2-.3.2-.3.4-.6.4-.6.4-.6 1.8-2.3 1-1.1 1-1.1.4-.5.5-.5 1-1 1.1-.9.5-.5.3-.2.3-.2a46.8 46.8 0 0 1 8.1-5.4l1.6-.8.6-.2 1.2-.3 1.2-.3 1.2-.3 1.2-.2 1.2-.2 1.2-.2.9-.2h7.4l1.5.2h3.6l1.4.2h.7l.7.2.7.2.7.2 3 .9.7.2.7.2 1.4.5.6.2.6.3.8.4.4.2.4.2 1.6.8 1.1.6.6.3.6.3 1.1.7.5.3.5.4a46.7 46.7 0 0 1 12.3 12.3l.2.2.9 2.1c.4 1.1.9 2.3 1.3 3.5a51.5 51.5 0 0 1 2 8.1l.2 1.7v10l.2-1v-.8c0-.3.1-.5.1-.8v-1.5-.7-2.3a46.8 46.8 0 0 0-.9-8.1 45.6 45.6 0 0 0-1.6-5.7 30.2 30.2 0 0 1 1.5 3.2c.4 1.1.9 2.3 1.3 3.5a55.5 55.5 0 0 1 2.1 8l.3 1.7v9.8l.4-.9V60c0-.3.1-.5.1-.8v-4.3a44.2 44.2 0 0 0-.8-8.1 45.3 45.3 0 0 0-2.7-8.6 49.3 49.3 0 0 0-4.3-8l-1.2-1.7-.8-1.1-.9-1.2-1-1.1-.2-.2H90l-1.2-1.7-.8-1.1-.9-1.2-.9-1.1-.5-.5-.5-.5-1-1-.5-.5-.5-.4-1-.9-1-.8-.5-.4-.3-.2-.3-.2-1-.8-.5-.4-.5-.4L77 12l.5.2.7.3.7.3 1.4.6 1.4.7.7.4.7.4 1.3.8 1.3.8.6.4.6.4.6.4.6.4 1.5 1.1a43.6 43.6 0 0 1 6 5.9l.5.5.5.6.6.8.6.8 1.8 2.2.8 1.2.7 1.2 1.1 2 1 1.8c.6 1 .7 1 .2-.3l-.4-1.1-.5-1.1-.4-1-.5-1-.6-1-.7-1a48 48 0 0 0-3.4-4.7 41.8 41.8 0 0 0-3.9-4l-1.3-1.1a48.1 48.1 0 0 0-11.5-7.6l-1.5-.7-1.5-.6-.8-.3-.8-.3-1.6-.6h-.5A61.3 61.3 0 0 0 65.3 6l-.6-.2H64l-3.4-.9 2.6.3 1.4.2 1.4.3 2.3.5 2 .5c1.1.2 1.2.2-.1-.3L69.1 6 68 5.3 67 5l-1.1-.3-1.2-.3-1.2-.2a48 48 0 0 0-5.7-.5h-14l-3.3.6h-.9l-.9.2-1.9.5-.9.3-.9.3-.8.3h-.8l-1.6.7-.4.2-.4.2-.8.4-1.1.5L28 9.2l-.5.3-.3.2-.3.2-1.1.7-.6.3-.6.4-1.1.7-.3.2-.3.2-.6.4-1.1.8-1.8 1.4-1.7 1.4a57.8 57.8 0 0 0-4.7 5.1l-1.1 1.4-.5.7-.5.7-.5.7-.5.8-.5.8-.2.4-.2.4-1 1.4-.8 1.6-.2.4-.2.4-.4.8-.4.8-.3.8-.4.9-.3.9-.6 1.9-.5 1.9-.2 1-.2 1c-.2.6-.2 1.3-.3 1.9L3 44c0 .3-.1.6-.1.9v4.7c0 .1.1.8.1 1.3s.2.4.4-1.7v-3.3l.2-1.3.2-1.3V42l.3-1.3.2-.7.2-.7.4-1.5.5-1.5.2-.7.3-.7.6-1.4.5-1.2.5-1.1.5-1.1.3-.5V29l.7-1.3.2-.4.2-.4.5-.7c.9-1.4 2.1-3 2.9-4.1l.4-.6.5-.5.9-1.1 1-1.1.5-.5.5-.5.9-.9 1-.9.5-.4.5-.4 1-.8.5-.4.5-.4 1.1-.8.6-.4.6-.4 1.2-.7A49.3 49.3 0 0 1 34.7 7l.6-.2.6-.2 1.2-.4 1.3-.3 1.3-.3 1.2-.2 1.2-.2 1.3-.2h3.7A48 48 0 0 0 37 7.8l-1.5.7-1.5.7-.7.4-.7.4-1.4.8-1.6 1-.8.5-.8.6a46.6 46.6 0 0 0-6.5 5.8l-.7.8-.7.8-1.5 1.7-1.3 1.7-1.2 1.8a50.8 50.8 0 0 0-3.2 5.7l-.4.7-.3.8-.6 1.5-.6 1.6v.2l-.2.4-.2.4-.4.8-.4.8-.3.8-.3.9-.3.9-.7 2-.5 2-.2 1-.2 1c-.1.6-.2 1.3-.3 1.9v.9c0 .3-.1.6-.1.9v4.2a5.1 5.1 0 0 0 0 .5c.1.5.2.8.3 1.3s.5.4.7-1.6v-1.2l.1-1.1v-1.3l.2-1.3.2-.8v5.1a47.2 47.2 0 0 0 1.6 9.4l.6 2 .7 2 .3.8.4 1.1v.6l.2.5.5 1.1.3.5.3.5.6 1.1.6 1 .8 1.2.4.9.5.9a40.4 40.4 0 0 0 2.8 4.4l.9 1.3.5.7.5.7 1 1.3.3.3.3.3.5.6 2.3 2.3 1.2 1.1.6.6.6.5.8.6a74 74 0 0 0 6.3 4.2L32 96l-.9-.3-.9-.4-1.7-.7-1.5-.8-1.6-.8-.4-.2-.4-.2-.7-.4a28.8 28.8 0 0 1-2.9-1.9l-1.6-1.2-.8-.7-.8-.7-.5-.4-.5-.5-.9-.9-.2-.2-.2-.2-.4-.5-.9-.9-.8-1-.8-1-.7-1h-.1l-.4-.7-.4-.8-.4-.8-.4-.8-.8-1.7c-.5-1.2-1-2.3-1.4-3.5l-.3-.9-.3-.9-.3-.9V69l-.4-1.8c-.1-.3-.1-.6-.2-1l-.2-1v-1.4l-.2-1.5c0-.2-.1-.5-.1-.7v-1.5c0-.2-.1-.5-.1-.7s-.3-2.4-.4-2.2l-.7 1.7c0 1.6.1 3.6.3 5.4a31 31 0 0 0 1.6 7l-.4-.8c-.5-1.2-1-2.3-1.3-3.5l-.3-.9-.3-.9-.3-.9v-.9l-.4-1.8c-.1-.3-.1-.6-.2-1l-.2-1v-1.3l-.2-1.5c0-.2-.1-.5-.1-.7v-1.5-.7c0-.2-.2-2.4-.2-2.2l-.4 1.7a52.9 52.9 0 0 0 .4 5.3 38.7 38.7 0 0 0 1.8 7.7L4 67.7l.3.7.3.7.4.9.2.5.2.5.9 1.8.9 1.8.2.4.3.4.5.9.2.4.9 1.9 1 1.8.3.5.3.4.5.9.2.4.3.4.5.8.5.8.5.7.5.7.5.7 1.1 1.4.6.7.6.6.6.6.6.6 1.3 1.4 1.3 1.2.3.3.3.3.7.5.7.6h.3l.4.3 1.4 1.1 1.5 1 1.1.8 1.1.8 1.2.8 1.3.8 1.3.7.3.2.3.2.7.3.7.3.7.3 1.4.6.7.3.7.3 1.5.6 1.6.5.8.2.8.2 1.6.4 1.6.3h13.8l2.9-.5.9-.2.9-.2 1.7-.5.9-.3.9-.3.9-.3.8-.3 4.5-1.9h.8l1.9-.6.4-.2.4-.2.8-.4.6-.3.6-.3 1.2-.6 1.2-.6 1.2-.6a37.2 37.2 0 0 0 7.2-4.8l.5-.4 1.3-1.1.6-.5.6-.6.6-.6.6-.6 1.1-1.2.4-.4.4-.4.7-.9.9-1.1.9-1.2.8-1.2.4-.6.4-.6a28.5 28.5 0 0 0 2-3.6l.9-1.8.9-2c-.1.3-.4.8-.8 1.8zm-29.6-65l.6.3.6.3 1.1.7.5.3.5.4a47.6 47.6 0 0 1 8.9 7.9l-.5-.4-.5-.4-.3-.2-.3-.2-1-.8-.5-.4-.5-.4-1.1-.8-.3-.2-.3-.2-.6-.4-1.2-.8-1-.5-1.2-.6-1.2-.6-.6-.3-.6-.3-1.2-.5h-.6l-.6-.3-1.2-.5-1.3-.5-.6-.2h-.7A49.4 49.4 0 0 0 58.1 9h-2.7l1.9-.2H67l.9.2 4.8 1.1zM17 25.6l.5-.8.5-.8 1.1-1.5.3-.4.4-.4.7-.8.2-.2h.2l.4-.4.8-.8 1.6-1.6.4-.4.4-.4.8-.7.7-.6.7-.6a48.4 48.4 0 0 1 8.4-5.4l.7-.4.7-.3 1.5-.8 1.4-.6.7-.3.7-.3 1.5-.5 1.5-.4.7-.2.7-.2.7-.2.7-.2 1.8-.4 4.3-.5h4.8l1.4.2h.7l.7.2.7.2.7.2L65 7l.7.2.7.2 1.4.5.6.2.6.3h.1a46.5 46.5 0 0 0-7.4-.8h-4.3l-2.2.2-2.2.4a54.9 54.9 0 0 0-5.4 1.1l-3.3.7h-.9l-.9.3-1.9.6-.9.3-.9.3-.8.3-.4.2h-.4l-1.6.7-.4.2-.4.2-.8.4-1.1.6-1.1.6-.5.3-.3.2-.3.2-1.1.7-.6.3-.5.4-1.1.7-.3.2-.3.2-.6.4-1.1.8-1.8 1.4-1.6 1.5a65.7 65.7 0 0 0-4.9 5.1l-1.1 1.4-.5.7-.5.7-.5.7a47.7 47.7 0 0 1 2.8-5zm16.8 70.2l-2-1.4-.5-.4-.5-.4-1-.7-.5-.4-.5-.4-.2-.2h.1l1.2.8a65 65 0 0 0 7.3 3.8l.9.4.5.2.5.2 1.9.7 1.9.6 1 .3h.1a51.1 51.1 0 0 1-7.3-1.4zM106.6 47l.2 1.3.2 1.3v.9c0 .3 0 .6.1.9V56.9c0 .4 0 1.6.2 1.1v-.5-1-2-1-1a28.5 28.5 0 0 0-.6-4.8l-.3-1.4v-.7l-.2-.7a2.2 2.2 0 0 0 0 .7zM88.5 16.3l-.7-.7-.7-.6-.7-.6-.4-.4-.4-.3a28.4 28.4 0 0 0-4.1-2.7l-1.3-.7-.3-.2-.3-.2-.7-.3.5.5 1.2.8 1.1.7 1.1.8.8.5.7.5 1.1.8.5.4.5.4 1.1.9 1 .9c1 .8 1.2 1 1 .6l-.3-.4z" fill="#333333" style="fill: rgb(51, 51, 51);"></path><path d="M19.8 13.2l1-.6 1.7-1.2 2-1.5 2.1-1.3 2.1-1.3 2.1-1.1 1.8-.9 1.8-.8L38 3.1 41.9 2l1.9-.5 2-.3 2-.3 2-.2 4-.2c1.3-.1 2.7.1 4 .1h2l2 .3 2.4.4 1.2.2 1.1.3 3.4.9L73.2 4a66 66 0 0 1 6.3 2.6 34.2 34.2 0 0 1 3.3 1.8l1.6 1 1.6 1.1c1.1.9 2.3 1.6 3.3 2.6l3.1 2.8 3.6 3.9 3.2 4.2 2.4 3.8a17.6 17.6 0 0 1 1.1 1.9l1 1.9a10.2 10.2 0 0 0 .8 1.2c-.3-.7-.5-1.4-.9-2.1l-1.1-2.3-1.3-2a44 44 0 0 0-2.5-3.7l-1.4-1.8a16.8 16.8 0 0 0-1.4-1.9 52.6 52.6 0 0 0-21-15l-2.6-.9-2.7-.9c-1.6-.4-3.1-.9-4.8-1.2L60 .2 55.1 0c-1.7 0-3.3.1-4.9.2a55 55 0 0 0-18.9 5.2l-2.8 1.4-2.7 1.6a51.3 51.3 0 0 0-5 3.7c-.9.6-1.2 1.2-1 1.1zM31.1 102.6l-1.5-.8-.8-.4-.7-.4-2.4-1.4-1.2-.7-1.1-.8A56.6 56.6 0 0 1 7.2 80.2a61.5 61.5 0 0 1-5.6-15l-.9-5.1c-.2-1.7-.3-3.4-.4-5.2s-.2-.9-.3-.2 0 1.9 0 2.9a22 22 0 0 0 .2 3.2A55.4 55.4 0 0 0 9.5 85l1.7 2.2 1.1 1.4 1.2 1.3 2.4 2.6 2.6 2.4 1.3 1.1 1.4 1 2.8 2.2a56.8 56.8 0 0 0 6.8 3.8 7.8 7.8 0 0 0 2.2.8c.3 0-.5-.5-1.9-1.2zM89.3 95.3l-1.4 1.1-1.4 1.1a48.1 48.1 0 0 1-14.8 7.8 30.5 30.5 0 0 1-3.8 1.1 30.4 30.4 0 0 1-3.9.9l-4 .6-4 .2h-1.6c0 .1.2.2.8.2s3.5 0 5.3-.2l3.3-.5 1.7-.3 1.6-.4 3.3-.8 3.2-1.1a53.4 53.4 0 0 0 10.7-5.4c1-.6 1.9-1.4 2.8-2.1a27.4 27.4 0 0 0 2.7-2.2 9.9 9.9 0 0 0 2-2.2 12.1 12.1 0 0 0-2.5 2.2zM.3 54.3a5.9 5.9 0 0 0 .4-2.5l.2-3 .4-2.9c.2-1 .2-1.9.5-2.9l.7-2.9a52.5 52.5 0 0 1 1.9-5.9h.1l.3-.9.4-.9.8-1.8a5.7 5.7 0 0 0 .4-1.2c0-.1-.3.2-.5.6l-1.5 3c-.5 1.1-.9 2.3-1.4 3.6s-.5 1.2-.6 1.8l-.5 1.9c-.3 1.3-.7 2.5-.9 3.7l-.5 3.8v3.8c-.4 1.8-.3 2.8-.2 2.7zM108.7 53.4l-.2-1.6c-.1-.5-.2-1.1-.2-1a8.8 8.8 0 0 0-.1 1.5c0 .5 0 1.4.1 2a55.7 55.7 0 0 1-1.7 13.7l-.5 2c-.2.7-.5 1.3-.7 1.9l-1.2 3.2a9.6 9.6 0 0 0-.9 2.4c0 .3.4-.4 1-1.4s1.3-3.4 1.7-4.3a15.3 15.3 0 0 0 .7-2.1l.4-1.5c.2-1.1.5-2.1.7-3.2l.5-3.3.2-1.6c.1-.6.1-1.1.1-1.7l.2-3.3v-1.7z" fill="#333333" style="fill: rgb(51, 51, 51);"></path></g></g></svg>
