<?xml version="1.0" standalone="no"?>
<!DOCTYPE svg PUBLIC "-//W3C//DTD SVG 20010904//EN"
 "http://www.w3.org/TR/2001/REC-SVG-20010904/DTD/svg10.dtd">
<svg version="1.0" xmlns="http://www.w3.org/2000/svg"
 width="566.000000pt" height="566.000000pt" viewBox="0 0 566.000000 566.000000"
 preserveAspectRatio="xMidYMid meet">
<metadata>
Created by potrace 1.11, written by Peter Selinger 2001-2013
</metadata>
<g transform="translate(0.000000,566.000000) scale(0.100000,-0.100000)"
fill="#000000" stroke="none">
<path d="M2659 5636 c-2 -2 -33 -6 -69 -10 -82 -7 -126 -12 -170 -20 -19 -3
-46 -8 -60 -10 -163 -29 -417 -100 -535 -150 -16 -7 -43 -19 -60 -26 -16 -7
-35 -14 -42 -16 -21 -4 -268 -131 -336 -173 -113 -69 -357 -251 -357 -267 0
-13 30 4 132 78 354 255 635 391 1031 497 71 19 96 24 177 36 14 2 44 6 68 10
68 11 91 13 212 21 181 12 480 6 560 -12 32 -7 53 -10 115 -19 28 -3 75 -13
105 -21 30 -9 89 -24 130 -35 74 -20 324 -112 407 -150 24 -10 45 -19 47 -19
11 0 189 -87 251 -123 73 -42 169 -103 195 -124 8 -7 47 -36 86 -65 58 -43
213 -179 268 -234 200 -202 432 -519 549 -749 19 -39 42 -79 51 -90 14 -18 14
-17 2 15 -43 120 -157 310 -295 495 -41 55 -93 125 -115 155 -40 53 -250 270
-311 321 -242 202 -463 339 -725 451 -103 43 -333 122 -425 144 -5 1 -37 9
-70 18 -33 9 -73 19 -90 21 -16 3 -41 8 -55 10 -14 3 -41 7 -60 10 -19 2 -60
10 -90 16 -49 10 -512 23 -521 15z"/>
<path d="M2224 5440 c-20 -8 -92 -19 -159 -25 -41 -3 -146 -31 -229 -61 -38
-14 -75 -23 -82 -20 -20 8 -247 -108 -269 -138 -11 -15 -49 -45 -85 -68 -159
-100 -350 -230 -350 -238 0 -5 -8 -11 -17 -14 -41 -14 -216 -185 -323 -316
-25 -30 -53 -63 -62 -74 -10 -11 -30 -38 -45 -60 -15 -23 -31 -43 -35 -46 -17
-13 -208 -336 -208 -353 0 -6 -6 -18 -13 -26 -18 -21 -93 -206 -102 -251 -4
-19 -12 -41 -17 -47 -6 -7 -8 -13 -4 -13 3 0 1 -11 -4 -25 -5 -14 -12 -36 -14
-48 -3 -12 -10 -47 -16 -77 -6 -30 -13 -73 -16 -95 -3 -22 -9 -52 -14 -68 -12
-36 -11 -377 1 -377 10 0 11 8 15 150 1 58 5 121 8 140 3 19 9 69 12 110 9
123 78 348 169 556 37 82 68 158 70 168 9 42 88 174 165 276 14 19 42 56 61
82 96 128 235 272 354 367 39 31 75 61 80 67 35 40 301 193 465 267 137 62
398 146 520 167 36 6 76 13 90 16 39 8 246 17 239 10 -3 -3 -21 -8 -40 -11
-39 -6 -200 -46 -274 -68 -250 -77 -580 -263 -786 -444 -98 -86 -256 -252
-345 -362 -10 -13 -24 -28 -29 -35 -17 -18 -109 -157 -147 -221 -71 -120 -146
-272 -182 -370 -21 -55 -55 -136 -76 -180 -63 -132 -131 -361 -156 -520 -11
-74 -14 -124 -14 -280 -1 -136 7 -200 25 -200 15 0 23 53 29 188 7 161 24 193
22 40 -1 -110 16 -288 38 -398 24 -116 52 -222 81 -307 20 -57 37 -107 38
-113 1 -5 5 -14 8 -20 8 -12 21 -63 25 -93 3 -24 57 -126 129 -247 23 -38 59
-101 80 -140 41 -77 132 -218 218 -337 78 -109 67 -96 228 -257 141 -141 280
-251 431 -342 32 -19 58 -37 58 -41 0 -4 -21 1 -47 11 -27 10 -86 33 -133 51
-47 18 -149 66 -227 106 -79 41 -143 72 -143 70 0 -7 103 -72 185 -116 44 -23
89 -48 100 -55 11 -7 49 -25 85 -40 36 -15 89 -38 119 -51 56 -26 207 -73 254
-79 15 -2 52 -15 83 -29 31 -14 68 -28 83 -31 60 -13 237 -18 596 -17 365 0
505 4 570 17 57 11 234 56 287 72 29 9 58 17 63 19 33 6 186 64 280 105 230
100 472 245 593 356 77 70 142 137 142 145 0 9 -64 -37 -98 -70 -8 -7 -30 -25
-50 -40 -21 -15 -39 -30 -42 -33 -3 -3 -48 -38 -100 -77 -214 -160 -520 -303
-803 -376 -98 -25 -162 -32 -407 -42 -85 -4 -158 -8 -163 -11 -4 -2 -6 1 -5 9
3 15 -29 16 -132 3 -36 -4 -123 -10 -195 -12 -71 -3 -146 -5 -165 -6 -19 -1
-50 2 -67 5 -237 45 -457 119 -598 200 -68 40 -159 92 -180 105 -11 7 -27 16
-35 20 -36 17 -205 127 -208 135 -2 4 -8 8 -13 8 -15 0 -111 74 -138 106 -14
16 -48 56 -76 89 -50 58 -125 155 -113 145 4 -3 29 -25 56 -49 68 -59 165
-131 177 -131 5 0 -18 28 -52 62 -108 112 -171 181 -218 243 -20 28 -41 52
-44 55 -12 8 -96 131 -126 184 -16 27 -45 96 -65 155 -20 58 -47 125 -59 149
-34 66 -97 322 -106 427 -2 28 -8 80 -14 115 -5 36 -13 91 -16 123 -4 32 -11
70 -15 85 -7 22 -9 17 -10 -28 -4 -115 0 -244 10 -298 17 -104 34 -188 47
-237 3 -13 2 -17 -4 -10 -14 14 -44 111 -54 175 -11 73 -13 83 -21 95 -3 6 -9
30 -13 55 -4 25 -9 54 -12 65 -3 11 -6 29 -8 40 -1 11 -7 45 -11 75 -11 66
-12 476 -2 575 12 117 27 184 58 260 5 11 14 38 21 60 6 22 15 45 19 50 12 16
80 178 84 201 20 104 266 454 428 609 63 62 94 87 191 165 11 8 25 20 31 26
51 49 429 265 441 252 2 -1 -45 -36 -103 -76 -125 -84 -189 -139 -332 -282
-114 -114 -135 -139 -215 -245 -95 -128 -242 -380 -252 -434 -2 -13 -13 -37
-24 -52 -18 -25 -49 -90 -55 -114 -1 -5 -17 -59 -35 -120 -31 -109 -62 -305
-47 -305 5 0 8 15 8 33 0 17 7 56 14 85 8 29 15 55 15 57 1 3 1 6 2 8 0 1 2
10 5 20 7 29 11 41 19 62 4 11 19 49 32 85 62 166 151 341 225 441 29 41 78
110 108 154 30 44 57 82 60 85 3 3 16 19 29 35 58 76 195 222 272 290 84 75
314 240 400 288 86 48 199 106 199 102 0 -3 11 0 25 5 14 5 36 12 48 14 12 2
42 9 67 16 55 15 72 18 130 26 25 3 48 8 51 10 32 19 360 25 684 12 177 -8
165 -6 290 -41 260 -74 309 -92 465 -169 142 -70 283 -149 300 -168 3 -3 48
-37 100 -76 275 -206 517 -486 600 -694 64 -161 125 -358 144 -465 3 -16 10
-44 15 -62 5 -17 7 -34 4 -36 -3 -3 0 -14 6 -24 9 -14 10 -10 6 22 -9 68 -17
107 -37 195 -11 47 -21 92 -23 100 -2 8 -8 27 -14 43 -6 15 -8 27 -5 27 4 0 1
7 -6 15 -7 9 -11 18 -8 21 6 5 58 -100 58 -116 0 -6 4 -18 9 -28 27 -50 114
-306 125 -366 2 -12 11 -48 19 -81 9 -33 18 -77 21 -97 3 -21 10 -55 14 -75 5
-21 8 -152 8 -291 -1 -138 0 -252 2 -252 40 0 30 590 -13 740 -2 8 -7 31 -10
50 -3 19 -13 60 -21 90 -9 30 -17 60 -18 65 -21 92 -103 298 -178 445 -62 120
-194 323 -275 424 -81 99 -78 94 -42 90 l31 -4 -17 28 c-111 172 -300 376
-465 501 -176 134 -176 134 -150 126 128 -39 501 -260 640 -378 124 -105 282
-273 405 -431 109 -139 137 -182 235 -361 69 -126 78 -123 25 9 -46 114 -67
155 -133 256 -169 258 -333 432 -612 646 -122 94 -284 191 -445 268 -84 40
-304 126 -324 126 -6 0 -64 27 -128 59 -164 82 -303 138 -374 151 -34 6 -72
15 -85 20 -13 5 -24 6 -24 2 0 -14 152 -87 233 -112 42 -13 77 -27 77 -31 0
-5 -6 -6 -12 -4 -94 31 -657 40 -707 11 -3 -2 -30 -7 -60 -10 -29 -4 -56 -8
-60 -10 -3 -2 -24 -7 -46 -10 -22 -4 -69 -14 -105 -22 -36 -9 -74 -18 -85 -20
-11 -3 -31 -7 -45 -9 -14 -2 -36 -7 -50 -10 -14 -4 -53 -10 -87 -15 -34 -4
-66 -11 -72 -15 -6 -3 -19 -8 -28 -10 -70 -13 -335 -115 -422 -161 -138 -74
-336 -200 -464 -295 -163 -122 -424 -390 -514 -528 -2 -2 -5 -2 -8 1 -3 2 18
43 46 89 28 46 57 93 63 104 26 48 108 163 138 196 88 97 340 328 428 393 164
123 426 273 600 344 30 13 64 27 75 32 43 18 107 37 142 41 5 1 19 6 33 11 14
5 32 11 40 13 8 2 49 13 90 24 41 11 107 23 145 27 39 3 90 9 115 13 47 7 305
6 375 -3 22 -2 59 -9 83 -14 23 -5 42 -8 42 -5 0 3 8 -1 17 -8 10 -8 14 -9 10
-2 -8 13 6 12 128 -7 39 -6 84 -16 100 -21 17 -5 48 -11 69 -15 22 -3 50 -10
63 -15 13 -5 23 -7 23 -5 0 2 20 -2 45 -10 59 -17 50 -2 -12 21 -26 10 -60 26
-74 36 -29 20 -199 65 -280 75 -30 3 -65 8 -79 11 -41 10 -953 13 -976 3z
m1290 -265 c15 -3 58 -13 95 -21 36 -9 77 -18 91 -20 50 -9 96 -27 122 -50 16
-12 37 -26 48 -29 35 -11 240 -154 240 -167 0 -4 7 -8 15 -8 7 0 18 -6 22 -13
4 -6 24 -24 43 -38 43 -32 240 -223 240 -232 0 -7 -111 74 -139 101 -63 61
-419 260 -496 277 -16 4 -74 25 -127 46 -53 21 -106 39 -118 39 -11 0 -65 13
-119 29 -54 16 -115 32 -135 35 -21 4 -41 8 -45 10 -10 7 -189 36 -219 36 -15
0 -22 3 -15 8 13 8 454 6 497 -3z m-1834 -4425 c151 -84 331 -164 480 -214 68
-23 71 -25 30 -21 -25 3 -54 6 -65 8 -31 6 -99 20 -105 22 -89 21 -123 34
-178 67 -101 59 -99 58 -195 131 -50 37 -94 67 -98 67 -5 0 -9 5 -9 11 0 7 8
6 23 -4 12 -8 65 -38 117 -67z"/>
<path d="M4118 5127 c11 -13 89 -67 190 -132 67 -43 275 -204 302 -234 16 -18
40 -32 40 -24 0 14 -109 119 -190 184 -73 58 -136 100 -225 149 -33 18 -76 42
-95 53 -27 16 -32 17 -22 4z"/>
<path d="M267 3999 c-31 -63 -71 -152 -88 -199 -43 -114 -117 -388 -129 -475
-6 -38 -13 -88 -16 -110 -4 -22 -8 -98 -10 -170 -1 -71 -6 -143 -10 -160 -14
-60 -13 -348 2 -440 7 -49 16 -104 18 -121 9 -69 88 -348 132 -469 90 -245
243 -523 398 -725 130 -170 349 -392 485 -493 31 -23 58 -44 61 -47 21 -21
168 -126 225 -161 156 -95 381 -202 373 -178 -2 6 -54 37 -116 70 -194 103
-309 173 -415 251 -435 323 -765 748 -950 1224 -71 180 -142 423 -153 519 -3
22 -9 56 -14 75 -5 19 -11 55 -14 80 -4 25 -8 56 -10 70 -4 21 -10 98 -20 240
-2 19 1 43 6 53 11 21 15 57 23 198 3 58 8 116 10 130 3 13 7 40 10 59 4 32 9
66 21 145 3 17 10 48 15 70 6 22 13 48 15 57 2 10 6 26 8 37 2 10 14 51 26 92
12 41 23 79 25 84 1 6 7 23 13 38 7 16 12 33 12 38 0 6 8 29 19 52 69 153 112
259 109 269 -2 6 -30 -40 -61 -103z"/>
<path d="M5187 3972 c3 -12 9 -25 14 -28 14 -8 11 10 -6 32 -13 18 -14 18 -8
-4z"/>
<path d="M5215 3908 c4 -13 11 -27 16 -33 5 -5 4 5 -2 23 -12 36 -24 44 -14
10z"/>
<path d="M5246 3840 c7 -28 12 -35 18 -29 2 2 -2 15 -10 29 l-15 25 7 -25z"/>
<path d="M5283 3735 c11 -31 22 -54 23 -52 6 5 -27 96 -36 102 -4 2 2 -20 13
-50z"/>
<path d="M5325 3582 c3 -23 12 -71 20 -106 21 -90 30 -294 28 -611 -3 -309 -5
-335 -38 -480 -7 -33 -16 -80 -20 -105 -8 -51 -60 -191 -100 -265 -21 -39 -25
-44 -20 -20 6 29 6 29 -9 9 -9 -12 -17 -37 -20 -56 -9 -76 -79 -259 -135 -353
-36 -61 -116 -177 -158 -229 -36 -43 -20 -43 22 1 l36 38 -31 -54 c-73 -127
-267 -386 -342 -457 -50 -48 -153 -124 -167 -124 -5 0 -11 -4 -13 -9 -4 -10
-166 -127 -223 -160 -240 -141 -357 -192 -610 -265 -141 -41 -177 -48 -253
-50 -31 -1 -62 -5 -68 -9 -7 -4 -29 -9 -50 -12 -22 -2 -57 -8 -79 -12 -22 -4
-195 -8 -385 -8 -298 1 -411 5 -488 20 -9 1 -42 6 -72 10 -63 8 -307 82 -417
126 -72 28 -249 114 -326 158 -72 40 -28 3 90 -75 64 -44 119 -79 122 -79 3 0
26 -13 51 -27 50 -30 303 -139 390 -168 30 -10 105 -31 165 -46 l110 -28 395
0 c369 1 402 2 495 23 55 12 109 24 120 26 11 3 54 16 95 30 41 15 82 28 91
30 10 2 83 31 163 65 81 33 152 60 159 59 18 -4 95 20 155 47 29 13 57 24 63
24 6 0 7 4 4 10 -3 6 1 7 9 4 31 -12 387 178 413 220 4 5 -7 0 -24 -12 -17
-12 -34 -22 -38 -22 -4 0 -19 -9 -34 -19 -34 -24 -284 -151 -297 -151 -5 1 4
8 20 17 16 8 34 20 40 25 35 30 137 98 147 98 6 0 66 55 133 122 105 106 154
159 266 288 87 100 217 294 232 346 5 20 27 62 48 95 63 98 270 532 290 609 6
25 22 77 35 115 20 60 31 106 71 285 3 14 8 34 10 45 1 11 6 34 8 50 22 121
26 478 7 665 -6 63 -25 167 -41 230 -17 63 -32 123 -35 134 -9 37 -15 29 -10
-12z"/>
<path d="M5520 3276 c0 -8 4 -17 9 -20 5 -4 7 3 4 14 -6 23 -13 26 -13 6z"/>
<path d="M5040 3271 c0 -6 4 -13 10 -16 6 -3 7 1 4 9 -7 18 -14 21 -14 7z"/>
<path d="M5049 2982 c3 -163 7 -235 11 -197 10 85 5 434 -6 445 -5 5 -7 -97
-5 -248z"/>
<path d="M2372 3181 c-53 -21 -96 -61 -125 -115 -20 -38 -22 -54 -22 -241 0
-185 2 -203 22 -240 48 -91 114 -130 218 -129 81 0 118 16 173 74 52 53 64
106 64 294 0 200 -8 234 -64 298 -60 68 -178 94 -266 59z m154 -99 c10 -5 30
-22 44 -37 25 -26 25 -30 28 -212 l3 -184 -27 -36 c-62 -82 -176 -80 -231 4
-15 23 -18 53 -20 196 0 94 3 182 9 197 25 72 125 109 194 72z"/>
<path d="M710 3183 c0 -5 -5 -35 -10 -68 -13 -75 -22 -303 -13 -330 12 -37 21
40 22 194 1 80 4 161 7 179 4 17 3 32 0 32 -3 0 -6 -3 -6 -7z"/>
<path d="M1049 3183 c-1 -4 -2 -27 -3 -50 l-2 -43 42 0 42 0 -1 -262 -2 -263
-40 -5 c-42 -5 -43 -7 -36 -84 1 -11 34 -14 180 -14 148 0 185 3 217 18 84 37
137 127 127 214 -6 50 -17 72 -61 119 l-36 37 22 16 c76 53 71 201 -9 268 -57
48 -85 54 -268 56 -94 0 -172 -3 -172 -7z m370 -117 c49 -44 43 -138 -11 -167
-12 -7 -58 -14 -100 -15 l-78 -3 0 106 0 105 84 -3 c65 -3 89 -8 105 -23z m-2
-293 c35 -16 56 -58 55 -106 -2 -76 -48 -105 -164 -106 l-78 0 0 113 0 113 78
0 c48 1 89 -4 109 -14z"/>
<path d="M1659 3175 c0 -8 -1 -30 -2 -47 l-1 -33 232 -3 232 -2 0 50 0 50
-230 0 c-197 0 -230 -2 -231 -15z"/>
<path d="M2940 3173 c-77 -32 -132 -120 -125 -199 7 -86 62 -136 210 -189 95
-34 135 -69 135 -117 0 -18 -7 -44 -16 -56 -28 -40 -62 -49 -187 -50 -65 -1
-122 -4 -126 -7 -5 -2 -8 -24 -7 -47 l2 -43 119 -2 c151 -3 197 8 251 63 71
70 85 172 35 242 -30 41 -77 67 -222 126 -97 40 -123 106 -64 165 24 25 32 26
150 29 l125 4 0 49 0 50 -123 -2 c-82 -1 -134 -6 -157 -16z"/>
<path d="M3310 3141 l0 -50 43 -3 42 -3 1 -300 c1 -165 2 -305 3 -312 1 -7 19
-12 49 -11 l47 0 0 156 0 157 48 2 48 2 79 -160 80 -159 50 0 c28 0 50 4 50
10 0 5 -39 88 -87 183 -84 169 -86 175 -72 205 8 18 17 32 21 32 5 0 8 5 8 11
0 7 29 69 65 140 36 70 65 133 65 139 0 7 -19 10 -52 8 l-53 -3 -75 -152 c-79
-160 -81 -162 -146 -155 l-30 4 0 151 1 152 -92 3 -93 3 0 -50z"/>
<path d="M3879 3180 c-1 -5 -1 -21 -1 -35 0 -55 -1 -54 65 -57 l62 -3 0 -260
0 -260 -62 -3 c-35 -2 -63 -7 -64 -12 0 -6 -1 -27 -1 -47 l-1 -38 178 0 179 0
2 48 2 47 -63 0 c-42 0 -64 4 -67 13 -3 10 -2 482 1 510 1 4 30 7 65 7 l64 0
-2 48 -1 47 -177 3 c-116 2 -178 -1 -179 -8z"/>
<path d="M4258 3183 c-3 -7 -3 -48 1 -80 0 -8 24 -13 64 -15 l62 -3 1 -255 c0
-168 -4 -258 -10 -262 -6 -4 -36 -8 -66 -8 l-56 0 2 -42 c1 -24 2 -47 3 -51 1
-4 81 -6 179 -5 l177 3 0 45 0 45 -60 3 c-33 2 -62 7 -65 12 -4 7 -5 487 -1
513 0 4 30 7 64 7 l64 0 -2 43 c-2 23 -3 45 -4 50 -1 4 -79 7 -175 7 -96 0
-176 -3 -178 -7z"/>
<path d="M5567 2979 c4 -13 8 -18 11 -10 2 7 -1 18 -6 23 -8 8 -9 4 -5 -13z"/>
<path d="M5630 2949 c-1 -128 -9 -401 -13 -434 -3 -22 -8 -60 -11 -85 -11 -85
-37 -225 -57 -305 -12 -44 -22 -87 -24 -95 -6 -27 -63 -183 -110 -299 -25 -63
-44 -116 -42 -118 6 -5 53 69 72 113 69 161 149 435 170 584 12 87 15 105 20
130 17 77 25 399 13 484 -8 58 -18 72 -18 25z"/>
<path d="M5570 2792 c0 -89 3 -162 8 -162 8 0 6 309 -2 318 -3 3 -6 -67 -6
-156z"/>
<path d="M133 2903 c-9 -38 -9 -57 1 -193 12 -154 43 -323 85 -458 18 -57 18
-66 4 -100 -14 -37 -14 -39 41 -160 30 -68 76 -162 102 -210 26 -48 70 -132
97 -187 28 -55 65 -122 84 -150 18 -27 33 -55 33 -62 0 -7 5 -13 10 -13 6 0
10 -4 10 -9 0 -8 75 -129 97 -156 4 -6 33 -44 64 -85 31 -41 119 -138 195
-215 146 -146 164 -163 211 -191 22 -13 19 -8 -12 21 -119 113 -174 167 -205
206 -19 24 -43 52 -53 63 -10 12 -37 46 -60 77 -23 31 -54 71 -68 90 -14 19
-36 52 -49 74 l-23 40 44 -40 c24 -22 54 -51 67 -65 18 -19 22 -20 14 -5 -6
11 -35 46 -64 77 -29 31 -57 63 -63 70 -101 134 -155 232 -238 433 -58 142
-78 206 -87 280 -4 33 -14 94 -23 135 -15 71 -26 179 -32 300 -1 30 -6 82 -10
115 -5 33 -8 63 -7 68 1 4 -2 7 -7 7 -4 0 -16 -21 -26 -46 -15 -40 -17 -65
-11 -168 4 -66 9 -134 11 -151 3 -16 7 -48 10 -70 6 -55 12 -79 34 -160 14
-52 16 -65 5 -51 -8 11 -14 27 -14 36 0 9 -4 20 -9 25 -14 16 -72 206 -76 250
-2 22 -11 72 -20 110 -9 39 -18 97 -21 129 -2 33 -6 80 -9 105 -4 25 -8 95
-10 154 -1 60 -5 110 -8 113 -2 3 -9 -12 -14 -33z"/>
<path d="M1658 2883 c-6 -12 -1 -83 6 -90 3 -4 44 -6 90 -5 l84 1 0 -155 c0
-90 4 -160 9 -165 6 -6 28 -9 49 -7 l39 3 2 115 c1 63 2 136 2 162 l1 48 73
-1 c116 -2 109 -5 105 49 l-3 47 -227 3 c-125 1 -228 -1 -230 -5z"/>
<path d="M4977 2241 c-4 -17 -3 -21 5 -13 5 5 8 16 6 23 -3 8 -7 3 -11 -10z"/>
<path d="M4744 1695 c-9 -14 -15 -27 -13 -30 3 -2 12 10 21 26 21 36 15 39 -8
4z"/>
<path d="M4664 1553 c-15 -20 -23 -33 -16 -29 13 8 56 66 49 66 -3 0 -17 -17
-33 -37z"/>
<path d="M5261 1503 c-10 -26 -10 -27 4 -9 8 11 15 23 15 28 0 15 -7 8 -19
-19z"/>
<path d="M4616 1482 l-19 -27 24 22 c12 12 21 24 18 27 -2 2 -13 -8 -23 -22z"/>
<path d="M5206 1416 c-20 -29 -36 -57 -36 -61 0 -7 20 20 63 88 10 15 15 27
13 27 -3 0 -21 -24 -40 -54z"/>
<path d="M4574 1428 l-19 -23 23 19 c12 11 22 21 22 23 0 8 -8 2 -26 -19z"/>
<path d="M4515 1360 c-3 -5 -1 -10 4 -10 6 0 11 5 11 10 0 6 -2 10 -4 10 -3 0
-8 -4 -11 -10z"/>
<path d="M5107 1270 c-26 -33 -44 -60 -39 -60 4 0 16 13 26 28 11 15 31 42 44
60 43 57 17 34 -31 -28z"/>
<path d="M5039 1183 c-13 -16 -12 -17 4 -4 16 13 21 21 13 21 -2 0 -10 -8 -17
-17z"/>
<path d="M4329 1154 c-13 -14 -62 -56 -109 -92 -47 -36 -87 -69 -90 -72 -6 -7
-116 -80 -152 -100 -14 -8 -50 -28 -80 -44 -49 -28 -51 -30 -28 -36 22 -5 80
18 100 40 8 9 114 77 126 81 25 9 264 230 264 245 0 8 -7 3 -31 -22z"/>
<path d="M846 1147 c3 -10 9 -15 12 -12 3 3 0 11 -7 18 -10 9 -11 8 -5 -6z"/>
<path d="M4999 1133 c-53 -60 -71 -86 -33 -48 43 43 69 75 62 75 -2 0 -15 -12
-29 -27z"/>
<path d="M922 1074 c10 -10 20 -16 22 -13 3 3 -5 11 -17 18 -21 13 -21 12 -5
-5z"/>
<path d="M950 1046 c0 -2 7 -7 16 -10 8 -3 12 -2 9 4 -6 10 -25 14 -25 6z"/>
<path d="M4852 979 c-34 -34 -61 -63 -59 -65 2 -2 32 26 67 61 82 82 76 85 -8
4z"/>
<path d="M3705 761 c-123 -62 -162 -80 -250 -112 -87 -31 -90 -42 -4 -14 103
32 118 38 254 106 133 67 130 65 118 72 -4 2 -58 -21 -118 -52z"/>
<path d="M4684 727 c-64 -58 -139 -119 -259 -210 -109 -83 -398 -241 -535
-292 -25 -10 -54 -21 -65 -26 -95 -40 -388 -121 -482 -134 -21 -2 -49 -7 -63
-10 -14 -3 -45 -8 -70 -11 -25 -3 -54 -8 -64 -10 -10 -2 -84 -6 -165 -9 -80
-4 -148 -9 -151 -12 -6 -6 324 3 355 10 11 3 40 8 65 12 25 4 54 9 65 11 10 2
36 6 57 9 94 14 414 105 498 142 8 3 17 7 20 8 137 52 388 182 505 264 141 98
365 289 365 313 0 14 -5 10 -76 -55z"/>
</g>
</svg>
