<svg xmlns="http://www.w3.org/2000/svg" version="1.1" xmlns:xlink="http://www.w3.org/1999/xlink" xmlns:svgjs="http://svgjs.com/svgjs" height="255.07038955688475" width="270.0200035095215"><defs id="SvgjsDefs2413"></defs><g id="SvgjsG2414" rel="mainfill" name="main_text" xmlns:name="main_text" transform="translate(44.09000024795532,-101.57479820251466)" fill="#ffffff"><path d="M3.27 240L3.27 218.22L26.91 218.22L26.91 224.45L23.02 229.11L27.22 233.78L27.22 240L3.27 240M10.89 233.78L18.67 233.78L18.67 233.47L14.78 229.11L18.35 224.76L18.35 224.45L10.89 224.45L10.89 233.78ZM45.58 224.45L45.58 240L37.95 240L37.95 224.45L30.18 224.45L30.18 218.22L53.35 218.22L53.35 224.45L45.58 224.45ZM74.66 229.11Q74.66 227.96 74.23 226.93Q73.79 225.91 73.03 225.15Q72.27 224.38 71.24 223.95Q70.21 223.51 69.06 223.51Q67.88 223.51 66.87 223.95Q65.86 224.38 65.10 225.15Q64.33 225.91 63.90 226.93Q63.46 227.96 63.46 229.11Q63.46 230.29 63.90 231.30Q64.33 232.32 65.10 233.08Q65.86 233.84 66.87 234.28Q67.88 234.71 69.06 234.71Q70.21 234.71 71.24 234.28Q72.27 233.84 73.03 233.08Q73.79 232.32 74.23 231.30Q74.66 230.29 74.66 229.11M82.60 229.11Q82.60 231.38 81.57 233.51Q80.54 235.64 78.74 237.29Q76.93 238.94 74.46 239.94Q71.99 240.93 69.06 240.93Q66.14 240.93 63.67 239.94Q61.19 238.94 59.39 237.29Q57.58 235.64 56.56 233.51Q55.53 231.38 55.53 229.11Q55.53 226.84 56.56 224.71Q57.58 222.58 59.39 220.93Q61.19 219.28 63.67 218.29Q66.14 217.29 69.06 217.29Q71.99 217.29 74.46 218.29Q76.93 219.28 78.74 220.93Q80.54 222.58 81.57 224.71Q82.60 226.84 82.60 229.11ZM86.48 218.22L108.88 218.22L108.88 225.69L101.57 225.69L101.57 224.13L94.11 224.13L94.11 225.22L108.88 228.80L108.88 240L86.48 240L86.48 232.53L93.80 232.53L93.80 234.09L101.26 234.09L101.26 232.84L86.48 229.27L86.48 218.22ZM122.42 240L114.79 240L114.79 218.22L122.42 218.22L122.42 240M139.53 240L130.97 240L123.66 229.11L130.66 218.22L139.22 218.22L131.90 229.11L139.53 240ZM141.86 218.22L158.19 218.22L158.19 224.45L153.84 224.45L153.84 233.78L158.19 233.78L158.19 240L141.86 240L141.86 233.78L146.22 233.78L146.22 224.45L141.86 224.45L141.86 218.22ZM162.24 218.22L178.57 218.22L178.57 224.45L174.21 224.45L174.21 233.78L178.57 233.78L178.57 240L162.24 240L162.24 233.78L166.59 233.78L166.59 224.45L162.24 224.45L162.24 218.22Z" fill="#ffffff" style="fill: rgb(255, 255, 255);"></path></g><g id="SvgjsG2415" transform="translate(0,0) scale(2.3)" rel="mainfill" name="outline_container" xmlns:name="outlineContainer_mainfill" fill="#7d00ff"><path d="M61.5 110.9h-5.7c-10.1 0-19.1-.4-26.5-4.6S16.3 93.1 11.6 85l-2.2-4C4.8 73.1 0 65 0 55.4s4.8-17.7 9.4-25.5l2.2-3.9c4.7-8.2 9.6-16.6 17.7-21.3S45.7 0 55.8 0h5.6C71.6 0 80.5.4 88 4.7s13 13.1 17.7 21.3l2.3 3.9c4.6 7.9 9.4 16 9.4 25.6s-4.8 17.7-9.4 25.6l-2.3 3.9c-4.7 8.2-9.6 16.6-17.7 21.3s-16.4 4.6-26.5 4.6zm-2.8-1.3h2.8c9.9 0 18.7-.3 25.9-4.5s12.6-12.8 17.2-20.8l2.3-3.9c4.5-7.7 9.2-15.7 9.2-24.9s-4.7-17.2-9.2-24.9l-2.3-3.9c-4.6-8-9.4-16.3-17.2-20.8s-16-4.6-26-4.6h-5.6c-9.9 0-18.7.3-25.9 4.5S17.4 18.6 12.8 26.6l-2.3 3.9C6 38.3 1.3 46.2 1.3 55.4S6 72.6 10.5 80.3l2.3 3.9c4.6 8 9.4 16.3 17.2 20.8s15.9 4.5 25.9 4.5z" fill="#7d00ff" style="fill: rgb(125, 0, 255);"></path></g></svg>